# xmcd CD database file
#
# Track frame offsets:
#	151
#	17561
#	39723
#	55628
#	88710
#	107492
#	126333
#	139826
#	160775
#	175411
#	202116
#	224793
#	246274
#
# Disc length: 3761 seconds
#
# Revision: 1
# Processed by: cddbd v1.4PL0 Copyright (c) Steve Scherf et al.
# Submitted via: CDex 1.40Release
#
DISCID=be0eaf0d
DTITLE=La Blusa - 2 Dance On "Remix"
DYEAR=2000
DGENRE=Blues
TTITLE0=Waiting For You
TTITLE1=Come On
TTITLE2=Right On Time
TTITLE3=Let's Come Together
TTITLE4=Got To Know
TTITLE5=Cajun Cooking
TTITLE6=Zydecolero
TTITLE7=Drowned In Your Eyes
TTITLE8=Alors Louisiana
TTITLE9=Yellow Moon
TTITLE10=Tequilla Sunrise
TTITLE11=Mexico
TTITLE12=Feeling Alright (live)
EXTD=YEAR: 2000 ID3G: 0
EXTT0=
EXTT1=
EXTT2=
EXTT3=
EXTT4=
EXTT5=
EXTT6=
EXTT7=
EXTT8=
EXTT9=
EXTT10=
EXTT11=
EXTT12=
PLAYORDER=
